<svg width="24" height="25" viewBox="0 0 24 25" fill="none" xmlns="http://www.w3.org/2000/svg">
<g clip-path="url(#clip0_197_1427)">
<path d="M5.31891 15.0034L4.4835 18.1221L1.43011 18.1867C0.517594 16.4942 0 14.5577 0 12.4999C0 10.51 0.483938 8.6335 1.34175 6.9812H1.34241L4.06078 7.47958L5.25159 10.1816C5.00236 10.9082 4.86652 11.6882 4.86652 12.4999C4.86661 13.3808 5.02617 14.2247 5.31891 15.0034Z" fill="#FBBB00"/>
<path d="M23.7903 10.2583C23.9281 10.9842 24 11.7339 24 12.5001C24 13.3592 23.9097 14.1972 23.7376 15.0056C23.1534 17.7563 21.627 20.1583 19.5125 21.8581L19.5119 21.8574L16.088 21.6827L15.6034 18.6576C17.0064 17.8348 18.1029 16.5471 18.6805 15.0056H12.2638V10.2583H23.7903Z" fill="#2F80ED"/>
<path d="M19.5119 21.8575L19.5125 21.8581C17.4561 23.5111 14.8437 24.5001 12 24.5001C7.43011 24.5001 3.45694 21.9458 1.43011 18.1869L5.31891 15.0037C6.3323 17.7083 8.94132 19.6336 12 19.6336C13.3147 19.6336 14.5464 19.2781 15.6033 18.6577L19.5119 21.8575Z" fill="#28B446"/>
<path d="M19.6595 3.26262L15.7721 6.44525C14.6782 5.76153 13.3852 5.36656 12 5.36656C8.87206 5.36656 6.21425 7.38017 5.25163 10.1818L1.34239 6.98131H1.34174C3.33889 3.13077 7.36217 0.5 12 0.5C14.9116 0.5 17.5813 1.53716 19.6595 3.26262Z" fill="#F14336"/>
</g>
<defs>
<clipPath id="clip0_197_1427">
<rect width="24" height="24" fill="white" transform="translate(0 0.5)"/>
</clipPath>
</defs>
</svg>
